<?xml version="1.0"?>
<svg xmlns:rdf="http://www.w3.org/1999/02/22-rdf-syntax-ns#" xmlns="http://www.w3.org/2000/svg" xmlns:cc="http://creativecommons.org/ns#" xmlns:dc="http://purl.org/dc/elements/1.1/" id="svg3237" viewBox="0 0 64 64" version="1.1">
 <title id="title4355">car icon</title>
 <defs id="defs3239">
  <filter id="filter4188">
   <feGaussianBlur id="feGaussianBlur4190" stdDeviation="4.1690975"/>
  </filter>
 </defs>
 <g id="layer1">
  <rect id="rect4339" opacity="0" ry="1.8908" height="63.604" width="63.604" y=".19820" x=".19820" stroke-width=".39640"/>
  <g id="g4250" fill="#0e232e" transform="translate(-.16364 -.56364)">
   <g id="g4435" transform="matrix(.040537 0 0 .040537 25.935 17.736)">
    <path id="path4377" d="m-197.99 528.04v-10c-64.65 1.6667-129.3 3.3333-193.95 5 64.65 1.6667 129.3 3.3333 193.95 5z" fill-rule="evenodd"/>
    <path id="path4379" d="m-222.57 503.79 0.66672-9.9778c-87.783-4.1873-175.4-0.7184-262.97 0.94827 87.576 1.6667 175.33 1.5393 262.31 9.0295z" fill-rule="evenodd"/>
    <path id="path4381" d="m-242.44 471.47v-10c-96.975 1.6667-193.95 3.3333-290.92 5 96.975 1.6667 193.95 3.3333 290.92 5z" fill-rule="evenodd"/>
    <path id="path4383" d="m-60.112 410.84-0.99504-9.9504c-44.162 4.9816-88.627 7.5724-133.13 7.8563h-0.00001c-45.714 1.3698-91.526-0.14406-136.78-6.932h0.00002c21.356-4.4546 41.275-13.412 60.484-23.429 17.633-9.4211 34.61-19.938 52.349-29.089-17.963 8.7004-35.236 18.804-53.043 27.748-19.407 9.9942-39.385 19.42-60.398 24.79 45.286 7.8572 91.346 11.591 137.35 13.536 0 0 0.00001 0 0.00002 0.00001 44.729 0.8432 89.538-0.63237 134.17-4.5302z" fill-rule="evenodd"/>
    <path id="path4385" d="m-262.52 360.46-0.23902 9.9971c112.35 1.8489 224.61-0.055 336.84 0.43715 111.49 0.49 223.09 3.27 334.02 14.76-110.75-13.14-222.42-17.6-333.96-19.75-112.28-2.16-224.57-1.93-336.66-5.45z" fill-rule="evenodd"/>
    <path id="path4387" d="m-265.27 357.17 5.2589 8.5055c66.648-41.864 140.95-71.657 218.23-87.587 0.000012 0 0.000024-0.00001 0.000035-0.00001 71.912-14.827 145.96-18.127 219.57-15.9 21.378-1.0901 43.013 2.6558 62.853 10.846 0.00001 0.00001 0.00003 0.00001 0.00004 0.00002 19.16 7.9093 36.631 19.692 52.419 33.291 16.157 13.919 30.646 29.731 44.299 46.185 13.3 16.03 25.79 32.731 38.413 49.318-12.389-16.762-24.642-33.635-37.734-49.873-13.438-16.667-27.747-32.728-43.809-46.968-15.697-13.918-33.185-26.07-52.557-34.401h-0.00001c-20.051-8.6221-42.027-12.768-63.896-11.962-73.748-3.2777-148.14-1.0028-220.86 12.924-0.000012 0.00001-0.000023 0.00001-0.000035 0.00001-78.286 14.998-153.93 44.069-222.19 85.619z" fill-rule="evenodd"/>
    <path id="path4389" d="m437.54 361.9 5.3945-8.4202c-63.8-38.95-131.82-72.92-204.53-89.04 71.916 19.357 137.57 56.069 199.15 97.454z" fill-rule="evenodd"/>
    <path id="path4391" d="m441.77 381.79 5.3946-8.4201c-2.0938-0.87143-3.1523-1.1254-3.1462-0.82554-0.61869 0.0384-1.0489 0.0986-1.2919 0.16063-0.90712 0.1886-1.6593 0.40764-2.2688 0.60553-2.2291 0.69949-4.3348 1.4888-6.3546 2.2612h-0.00001c-6.7779 2.5832-13.428 5.36-20.027 8.149 0 0-0.00001 0-0.00001 0.00001-16.405 7.8168-32.899 15.838-49.466 24.068h-0.00001c-4.5626-16.215-11.767-31.568-20.798-45.821-9.4927-14.329-20.502-27.526-32.287-39.879-22.709-23.801-48.279-44.399-73.129-65.727 24.095 22.178 48.958 43.677 70.62 68.038 11.245 12.645 21.643 26.026 30.427 40.354v0.00001c9.482 14.775 17.496 30.637 23.256 47.267 0-0.00001 0.00001-0.00001 0.00001-0.00001 17.891-7.0846 36.134-13.752 54.712-20.008 0 0 0.00001 0 0.00001-0.00001 6.6694-2.5483 13.312-5.0561 19.984-7.3351l0.00001-0.00001c2.0241-0.68955 3.9708-1.3481 5.866-1.8654 0.56857-0.14966 0.99956-0.26946 1.2997-0.30682 0.11222-0.004 0.04-0.004-0.21752 0.0231 0.20158 0.29348-0.64425 0.0271-2.5734-0.73889z" fill-rule="evenodd"/>
    <path id="path4393" d="m492.95 544.2v-10l-521.24 5 521.24 5z" fill-rule="evenodd"/>
    <path id="path4395" d="m-341.54 408.06 9.657 2.5968c3.1353-13.065 4.0332-26.335 4.0151-39.379-0.31965-13.698-1.4021-27.072-1.8971-40.224-11.382-7.0238-21.717-15.653-30.891-25.232-7.3955-7.5054-14.268-15.881-22.194-23.418-0.24202-12.602-0.53391-25.324-0.87561-38.166-0.3417 12.843-0.63355 25.806-0.87561 38.89 7.4132 7.8551 13.857 16.752 21.157 25.254 8.5625 9.7399 18.295 18.351 29.189 25.169v0.00001c-0.49495 12.765-0.56418 25.311-1.5568 37.521-0.68608 12.671-2.1834 25.212-5.728 36.989z" fill-rule="evenodd"/>
    <path id="path4397" d="m-402.03 259.87-4.0614 9.1381c39.418 16.699 79.131 32.196 118.91 46.966 6.0079-1.0936 11.529-3.5539 16.371-6.7259 4.593-3.2001 8.6089-7.0045 12.28-10.983v-0.00001c3.4663-3.7489 6.6392-7.6586 9.8118-11.481 2.4418-3.7726 4.7326-7.4431 7.4407-10.409-25.792-10.412-53.305-13.64-80.324-14.213h-0.00002c-27.553-0.25123-54.979 1.8835-82.461 2.2778 27.483 0.39432 55.008-0.95214 82.406 0.0875h0.00002c26.758 0.68993 53.642 3.3231 78.058 12.221-3.4229 2.0501-6.23 4.5239-8.9357 6.7725-3.3087 3.7582-6.5328 7.5109-9.9432 10.986 0 0 0 0.00001-0.00001 0.00001-3.6311 3.6928-7.4441 7.1234-11.633 9.843-3.8848 2.7109-8.1265 4.7661-12.478 5.5297-39.029-15.85-77.598-32.369-115.44-50.009z" fill-rule="evenodd"/>
    <path id="path4399" d="m-299.1 384.44 8.2634-5.6316c-4.5273-5.902-8.4096-12.321-11.283-19.198-2.6305-6.2646-4.4325-12.97-5.6132-19.837-2.6341-15.291-2.5406-31.252-3.3975-47.043-0.85694 15.791-2.6787 31.544-1.7105 47.629v0.00001c0.44256 7.2712 1.5773 14.583 3.6891 21.736 2.3284 7.8413 5.7879 15.346 10.052 22.344z" fill-rule="evenodd"/>
    <path id="path4401" d="m-364.61 442.05 9.9936 0.35704c0.18691-5.7959 1.0304-11.515 2.8436-16.832 1.4656-4.3571 3.6193-8.5254 6.2667-12.387 0.00001 0 0.00001-0.00001 0.00001-0.00001 4.1529-6.7132 10.361-12.574 16.01-19.634 88.881-2.7024 178.12-4.7806 267.73-5.1675h0.000047c24.803 25.556 51.08 49.746 78.655 72.446 26.604 21.693 54.288 42.097 83.47 60.09 0.00002 0.00001 0.00003 0.00002 0.00004 0.00003 64.643 5.9808 129.48 7.6831 194.17 7.8255 64.81 0.11763 129.59-1.3187 194.38-1.667-64.793-0.34821-129.6 0.39174-194.37-0.42228-64.498-0.78637-128.94-3.0782-192.88-9.5816-28.57-18.102-55.558-38.573-81.416-60.304-27.812-23.144-54.439-47.8-79.708-73.84h-0.000046c-90.897-0.38697-182.14 0.93975-273.71 2.9137-6.3123 6.8951-13.913 13.463-20.255 21.839-0.00001 0.00001-0.00002 0.00003-0.00003 0.00004-3.1643 4.4944-5.7708 9.4302-7.6213 14.696-2.2263 6.4052-3.3161 13.073-3.5719 19.668z" fill-rule="evenodd"/>
    <path id="path4403" d="m403.11 526.89 9.9923 0.39302c0.18736-28.057-8.1922-55.191-20.882-79.387-11.958-22.827-27.521-43.405-44.723-62.231 15.973 19.879 30.099 41.29 40.353 64.347 10.842 24.416 17.195 50.969 15.26 76.878z" fill-rule="evenodd"/>
    <path id="path4405" d="m812.85 474.22 6.7041-7.4199c-26.036-22.964-55.754-41.421-87.266-55.468-31.768-14.159-65.236-23.981-99.148-30.801-34.902-7.0205-70.308-10.926-105.74-13.047h-0.00002c-35.703-2.1383-71.459-2.4561-107.18-2.0301 35.721 0.42597 71.441 1.5966 107 4.5794h0.00001c35.284 2.9607 70.428 7.6888 104.86 15.478 0 0 0.00001 0.00001 0.00002 0.00001 33.448 7.5688 66.249 18.05 97.052 32.685 30.539 14.507 59.075 33.194 83.721 56.023z" fill-rule="evenodd"/>
    <path id="path4409" stroke-linejoin="round" d="m-135.01 575.65c-54.038 0-97.847-41.188-97.847-91.993 0-20.293 6.9946-39.038 18.833-54.25-4.538 10.604-7.0555 22.184-7.0555 34.315 0 50.805 43.809 91.993 97.847 91.993 32.454 0 61.214-14.871 79.015-37.743-14.468 33.807-49.657 57.678-90.792 57.678z" stroke="#493939" stroke-linecap="round" stroke-width=".41976"/>
    <path id="path4413" stroke-linejoin="round" d="m572.84 584.37c52.197 13.986 105.17-14.46 118.32-63.534 5.2522-19.601 3.3475-39.518-4.1504-57.275 1.6388 11.418 1.0734 23.254-2.0664 34.972-13.149 49.074-66.126 77.52-118.32 63.534-31.348-8.3997-55.28-30.208-66.553-56.908 5.2247 36.4 33.037 68.564 72.77 79.211z" stroke="#493939" stroke-linecap="round" stroke-width=".41976"/>
    <path id="path4415" d="m170.57 361.6 6.3502 7.725c4.3338-3.7726 8.472-8.3724 11.215-14.034 2.0321-4.2372 2.8577-9.0832 2.1002-13.845-0.84635-4.6682-2.9615-8.7283-5.5538-12.123-3.0373-4.0264-6.6169-7.4035-10.299-10.441-8.7233-7.2142-18.228-13.028-27.483-19.036-9.0077-5.8631-18.057-11.667-25.682-19.237 6.9631 8.1825 15.626 14.862 24.114 21.442 8.7536 6.7992 17.678 13.34 25.377 20.911h0.00001c3.2377 3.1932 6.2352 6.5121 8.4896 10.148l0.00001 0.00001c1.86 3.0516 3.2619 6.2519 3.4531 9.3493 0.2794 2.9993-0.62993 6.1477-2.191 8.8672-2.2142 3.9364-5.8788 7.186-9.8902 10.273z" fill-rule="evenodd"/>
    <path id="path4417" d="m3.9289 283.69 0.22347 9.9975c71.614-3.2691 142.6-11.413 214.04-13.08-71.441-1.6667-143.03 3.1586-214.26 3.0825z" fill-rule="evenodd"/>
    <path id="path4419" d="m51.617 364.77 9.904 1.3821c0.78457-8.1068 0.86302-16.469-0.55292-24.703-1.3633-7.829-4.224-15.325-8.4017-21.952h-0.000001c-4.9244-7.7649-11.363-14.23-18.307-19.789h-0.000004c-9.387-7.5238-19.695-13.602-30.218-19.1 9.9692 6.4483 19.62 13.428 28.037 21.578h0.000002c6.2097 6.0204 11.737 12.705 15.504 20.158 3.2006 6.2927 5.0897 13.184 5.6402 20.109 0.60672 7.3596-0.21587 14.85-1.6046 22.316z" fill-rule="evenodd"/>
    <path id="path4421" d="m819.19 468.4-9.283 3.7183c5.1684 12.231 9.7063 24.658 12.633 37.43 3.7926 13.733 5.6184 28.072 3.3512 41.944v0.00001c-27.166 5.7882-55.65 7.1493-84.304 7.9212h-0.00001c-28.983 0.9867-58.127 1.0679-87.01 4.0332 28.976-1.8495 57.99-0.80332 87.06-0.67466h0.00001c29.167-0.0827 58.81-1.2144 88.231-7.3397v-0.00001c3.6502-15.607 3.2996-31.915 0.93666-47.612-2.58-13.555-6.7822-26.683-11.615-39.42z" fill-rule="evenodd"/>
    <path id="path4423" d="m496.57 564.39 0.84946-9.9639c-95.908-7.34-192.06-8.4077-288.06-7.5894-96.761 0.82343-193.44 3.6535-290.17 4.4901 96.726 0.83662 193.48-0.32046 290.17 0.52962 95.934 0.84474 191.88 3.5694 287.21 12.534z" fill-rule="evenodd"/>
    <path id="path4425" d="m-234.94 540.13 1.1616-9.9323c-83.681-8.089-167.5-4.7817-251.1-3.1151 83.601 1.6667 167.55 1.715 249.94 13.047z" fill-rule="evenodd"/>
    <path id="path4427" d="m694.63 620.96 0.70448-9.9752c-195.48-12.96-391.38-17.15-587.18-17.93-196.35-0.77827-392.66 1.8842-588.98 2.7187 196.32 0.8345 392.66-0.15884 588.94 2.2882 195.73 2.4407 391.45 8.2899 586.53 22.902z" fill-rule="evenodd"/>
    <path id="path4429" d="m-227.2 556.24 1.8442-9.8285c-27.114-4.2031-53.149-16.025-75.597-32.756-22.204-16.544-41.206-37.406-58.665-59.305 16.134 22.893 33.922 44.938 55.576 63.197 21.959 18.507 48.238 32.44 76.842 38.692z" fill-rule="evenodd"/>
    <path id="path4431" d="m-43.8 388.78-1.2942 9.9159c8.9446 0.75224 17.828 3.3059 25.558 7.9549 7.194 4.2823 13.458 10.366 18.733 17.275 5.5238 7.2434 10.001 15.395 13.958 23.815h0.000002c4.0959 8.7218 7.6201 17.759 11.089 26.809-2.6552-9.3222-5.3671-18.64-8.713-27.799-0.000001 0-0.000001-0.00001-0.000002-0.00001-3.2277-8.8421-7.0602-17.57-12.174-25.704-4.8937-7.7911-11.087-14.973-18.777-20.587-8.3454-6.04-18.182-9.9338-28.38-11.68z" fill-rule="evenodd"/>
    <path id="path4433" d="m17.1 392.87-1.8759 9.8225c10.95 1.6153 21.708 5.574 31.95 10.72h0.000003c10.428 5.2504 20.32 11.772 29.872 18.827h0.000006c9.0157 6.6616 17.713 13.843 26.402 21.053 7.116 5.9062 14.201 11.948 21.811 17.22-7.1914-5.8294-13.748-12.342-20.415-18.778-8.1238-7.8463-16.285-15.69-24.898-23.121-0.000002-0.00001-0.000004-0.00001-0.000005-0.00001-9.1141-7.8678-18.734-15.302-29.213-21.626h-0.000006c-10.295-6.2231-21.525-11.328-33.632-14.116z" fill-rule="evenodd"/>
    <path id="path4918" stroke-linejoin="round" d="m572.84 584.37c52.197 13.986 105.17-14.46 118.32-63.534 5.2522-19.601 3.3475-39.518-4.1504-57.275 1.6388 11.418 1.0734 23.254-2.0664 34.972-13.149 49.074-66.126 77.52-118.32 63.534-31.348-8.3997-55.28-30.208-66.553-56.908 5.2247 36.4 33.037 68.564 72.77 79.211z" stroke="#493939" stroke-linecap="round" stroke-width=".41976"/>
   </g>
   <g id="g3358" transform="matrix(.040537 0 0 .040537 26.117 17.554)" filter="url(#filter4188)">
    <path id="path3360" d="m-197.99 528.04v-10c-64.65 1.6667-129.3 3.3333-193.95 5 64.65 1.6667 129.3 3.3333 193.95 5z" fill-rule="evenodd"/>
    <path id="path3362" d="m-222.57 503.79 0.66672-9.9778c-87.783-4.1873-175.4-0.7184-262.97 0.94827 87.576 1.6667 175.33 1.5393 262.31 9.0295z" fill-rule="evenodd"/>
    <path id="path3364" d="m-242.44 471.47v-10c-96.975 1.6667-193.95 3.3333-290.92 5 96.975 1.6667 193.95 3.3333 290.92 5z" fill-rule="evenodd"/>
    <path id="path3366" d="m-60.112 410.84-0.99504-9.9504c-44.162 4.9816-88.627 7.5724-133.13 7.8563h-0.00001c-45.714 1.3698-91.526-0.14406-136.78-6.932h0.00002c21.356-4.4546 41.275-13.412 60.484-23.429 17.633-9.4211 34.61-19.938 52.349-29.089-17.963 8.7004-35.236 18.804-53.043 27.748-19.407 9.9942-39.385 19.42-60.398 24.79 45.286 7.8572 91.346 11.591 137.35 13.536 0 0 0.00001 0 0.00002 0.00001 44.729 0.8432 89.538-0.63237 134.17-4.5302z" fill-rule="evenodd"/>
    <path id="path3368" d="m-262.52 360.46-0.23902 9.9971c112.35 1.8489 224.61-0.055 336.84 0.43715 111.49 0.49 223.09 3.27 334.02 14.76-110.75-13.14-222.42-17.6-333.96-19.75-112.28-2.16-224.57-1.93-336.66-5.45z" fill-rule="evenodd"/>
    <path id="path3370" d="m-265.27 357.17 5.2589 8.5055c66.648-41.864 140.95-71.657 218.23-87.587 0.000012 0 0.000024-0.00001 0.000035-0.00001 71.912-14.827 145.96-18.127 219.57-15.9 21.378-1.0901 43.013 2.6558 62.853 10.846 0.00001 0.00001 0.00003 0.00001 0.00004 0.00002 19.16 7.9093 36.631 19.692 52.419 33.291 16.157 13.919 30.646 29.731 44.299 46.185 13.3 16.03 25.79 32.731 38.413 49.318-12.389-16.762-24.642-33.635-37.734-49.873-13.438-16.667-27.747-32.728-43.809-46.968-15.697-13.918-33.185-26.07-52.557-34.401h-0.00001c-20.051-8.6221-42.027-12.768-63.896-11.962-73.748-3.2777-148.14-1.0028-220.86 12.924-0.000012 0.00001-0.000023 0.00001-0.000035 0.00001-78.286 14.998-153.93 44.069-222.19 85.619z" fill-rule="evenodd"/>
    <path id="path3372" d="m437.54 361.9 5.3945-8.4202c-63.8-38.95-131.82-72.92-204.53-89.04 71.916 19.357 137.57 56.069 199.15 97.454z" fill-rule="evenodd"/>
    <path id="path3374" d="m441.77 381.79 5.3946-8.4201c-2.0938-0.87143-3.1523-1.1254-3.1462-0.82554-0.61869 0.0384-1.0489 0.0986-1.2919 0.16063-0.90712 0.1886-1.6593 0.40764-2.2688 0.60553-2.2291 0.69949-4.3348 1.4888-6.3546 2.2612h-0.00001c-6.7779 2.5832-13.428 5.36-20.027 8.149 0 0-0.00001 0-0.00001 0.00001-16.405 7.8168-32.899 15.838-49.466 24.068h-0.00001c-4.5626-16.215-11.767-31.568-20.798-45.821-9.4927-14.329-20.502-27.526-32.287-39.879-22.709-23.801-48.279-44.399-73.129-65.727 24.095 22.178 48.958 43.677 70.62 68.038 11.245 12.645 21.643 26.026 30.427 40.354v0.00001c9.482 14.775 17.496 30.637 23.256 47.267 0-0.00001 0.00001-0.00001 0.00001-0.00001 17.891-7.0846 36.134-13.752 54.712-20.008 0 0 0.00001 0 0.00001-0.00001 6.6694-2.5483 13.312-5.0561 19.984-7.3351l0.00001-0.00001c2.0241-0.68955 3.9708-1.3481 5.866-1.8654 0.56857-0.14966 0.99956-0.26946 1.2997-0.30682 0.11222-0.004 0.04-0.004-0.21752 0.0231 0.20158 0.29348-0.64425 0.0271-2.5734-0.73889z" fill-rule="evenodd"/>
    <path id="path3376" d="m492.95 544.2v-10l-521.24 5 521.24 5z" fill-rule="evenodd"/>
    <path id="path3378" d="m-341.54 408.06 9.657 2.5968c3.1353-13.065 4.0332-26.335 4.0151-39.379-0.31965-13.698-1.4021-27.072-1.8971-40.224-11.382-7.0238-21.717-15.653-30.891-25.232-7.3955-7.5054-14.268-15.881-22.194-23.418-0.24202-12.602-0.53391-25.324-0.87561-38.166-0.3417 12.843-0.63355 25.806-0.87561 38.89 7.4132 7.8551 13.857 16.752 21.157 25.254 8.5625 9.7399 18.295 18.351 29.189 25.169v0.00001c-0.49495 12.765-0.56418 25.311-1.5568 37.521-0.68608 12.671-2.1834 25.212-5.728 36.989z" fill-rule="evenodd"/>
    <path id="path3380" d="m-402.03 259.87-4.0614 9.1381c39.418 16.699 79.131 32.196 118.91 46.966 6.0079-1.0936 11.529-3.5539 16.371-6.7259 4.593-3.2001 8.6089-7.0045 12.28-10.983v-0.00001c3.4663-3.7489 6.6392-7.6586 9.8118-11.481 2.4418-3.7726 4.7326-7.4431 7.4407-10.409-25.792-10.412-53.305-13.64-80.324-14.213h-0.00002c-27.553-0.25123-54.979 1.8835-82.461 2.2778 27.483 0.39432 55.008-0.95214 82.406 0.0875h0.00002c26.758 0.68993 53.642 3.3231 78.058 12.221-3.4229 2.0501-6.23 4.5239-8.9357 6.7725-3.3087 3.7582-6.5328 7.5109-9.9432 10.986 0 0 0 0.00001-0.00001 0.00001-3.6311 3.6928-7.4441 7.1234-11.633 9.843-3.8848 2.7109-8.1265 4.7661-12.478 5.5297-39.029-15.85-77.598-32.369-115.44-50.009z" fill-rule="evenodd"/>
    <path id="path3382" d="m-299.1 384.44 8.2634-5.6316c-4.5273-5.902-8.4096-12.321-11.283-19.198-2.6305-6.2646-4.4325-12.97-5.6132-19.837-2.6341-15.291-2.5406-31.252-3.3975-47.043-0.85694 15.791-2.6787 31.544-1.7105 47.629v0.00001c0.44256 7.2712 1.5773 14.583 3.6891 21.736 2.3284 7.8413 5.7879 15.346 10.052 22.344z" fill-rule="evenodd"/>
    <path id="path3384" d="m-364.61 442.05 9.9936 0.35704c0.18691-5.7959 1.0304-11.515 2.8436-16.832 1.4656-4.3571 3.6193-8.5254 6.2667-12.387 0.00001 0 0.00001-0.00001 0.00001-0.00001 4.1529-6.7132 10.361-12.574 16.01-19.634 88.881-2.7024 178.12-4.7806 267.73-5.1675h0.000047c24.803 25.556 51.08 49.746 78.655 72.446 26.604 21.693 54.288 42.097 83.47 60.09 0.00002 0.00001 0.00003 0.00002 0.00004 0.00003 64.643 5.9808 129.48 7.6831 194.17 7.8255 64.81 0.11763 129.59-1.3187 194.38-1.667-64.793-0.34821-129.6 0.39174-194.37-0.42228-64.498-0.78637-128.94-3.0782-192.88-9.5816-28.57-18.102-55.558-38.573-81.416-60.304-27.812-23.144-54.439-47.8-79.708-73.84h-0.000046c-90.897-0.38697-182.14 0.93975-273.71 2.9137-6.3123 6.8951-13.913 13.463-20.255 21.839-0.00001 0.00001-0.00002 0.00003-0.00003 0.00004-3.1643 4.4944-5.7708 9.4302-7.6213 14.696-2.2263 6.4052-3.3161 13.073-3.5719 19.668z" fill-rule="evenodd"/>
    <path id="path3386" d="m403.11 526.89 9.9923 0.39302c0.18736-28.057-8.1922-55.191-20.882-79.387-11.958-22.827-27.521-43.405-44.723-62.231 15.973 19.879 30.099 41.29 40.353 64.347 10.842 24.416 17.195 50.969 15.26 76.878z" fill-rule="evenodd"/>
    <path id="path3388" d="m812.85 474.22 6.7041-7.4199c-26.036-22.964-55.754-41.421-87.266-55.468-31.768-14.159-65.236-23.981-99.148-30.801-34.902-7.0205-70.308-10.926-105.74-13.047h-0.00002c-35.703-2.1383-71.459-2.4561-107.18-2.0301 35.721 0.42597 71.441 1.5966 107 4.5794h0.00001c35.284 2.9607 70.428 7.6888 104.86 15.478 0 0 0.00001 0.00001 0.00002 0.00001 33.448 7.5688 66.249 18.05 97.052 32.685 30.539 14.507 59.075 33.194 83.721 56.023z" fill-rule="evenodd"/>
    <path id="path3390" stroke-linejoin="round" d="m-135.01 575.65c-54.038 0-97.847-41.188-97.847-91.993 0-20.293 6.9946-39.038 18.833-54.25-4.538 10.604-7.0555 22.184-7.0555 34.315 0 50.805 43.809 91.993 97.847 91.993 32.454 0 61.214-14.871 79.015-37.743-14.468 33.807-49.657 57.678-90.792 57.678z" stroke="#493939" stroke-linecap="round" stroke-width=".41976"/>
    <path id="path3392" stroke-linejoin="round" d="m572.84 584.37c52.197 13.986 105.17-14.46 118.32-63.534 5.2522-19.601 3.3475-39.518-4.1504-57.275 1.6388 11.418 1.0734 23.254-2.0664 34.972-13.149 49.074-66.126 77.52-118.32 63.534-31.348-8.3997-55.28-30.208-66.553-56.908 5.2247 36.4 33.037 68.564 72.77 79.211z" stroke="#493939" stroke-linecap="round" stroke-width=".41976"/>
    <path id="path3394" d="m170.57 361.6 6.3502 7.725c4.3338-3.7726 8.472-8.3724 11.215-14.034 2.0321-4.2372 2.8577-9.0832 2.1002-13.845-0.84635-4.6682-2.9615-8.7283-5.5538-12.123-3.0373-4.0264-6.6169-7.4035-10.299-10.441-8.7233-7.2142-18.228-13.028-27.483-19.036-9.0077-5.8631-18.057-11.667-25.682-19.237 6.9631 8.1825 15.626 14.862 24.114 21.442 8.7536 6.7992 17.678 13.34 25.377 20.911h0.00001c3.2377 3.1932 6.2352 6.5121 8.4896 10.148l0.00001 0.00001c1.86 3.0516 3.2619 6.2519 3.4531 9.3493 0.2794 2.9993-0.62993 6.1477-2.191 8.8672-2.2142 3.9364-5.8788 7.186-9.8902 10.273z" fill-rule="evenodd"/>
    <path id="path3396" d="m3.9289 283.69 0.22347 9.9975c71.614-3.2691 142.6-11.413 214.04-13.08-71.441-1.6667-143.03 3.1586-214.26 3.0825z" fill-rule="evenodd"/>
    <path id="path3398" d="m51.617 364.77 9.904 1.3821c0.78457-8.1068 0.86302-16.469-0.55292-24.703-1.3633-7.829-4.224-15.325-8.4017-21.952h-0.000001c-4.9244-7.7649-11.363-14.23-18.307-19.789h-0.000004c-9.387-7.5238-19.695-13.602-30.218-19.1 9.9692 6.4483 19.62 13.428 28.037 21.578h0.000002c6.2097 6.0204 11.737 12.705 15.504 20.158 3.2006 6.2927 5.0897 13.184 5.6402 20.109 0.60672 7.3596-0.21587 14.85-1.6046 22.316z" fill-rule="evenodd"/>
    <path id="path3400" d="m819.19 468.4-9.283 3.7183c5.1684 12.231 9.7063 24.658 12.633 37.43 3.7926 13.733 5.6184 28.072 3.3512 41.944v0.00001c-27.166 5.7882-55.65 7.1493-84.304 7.9212h-0.00001c-28.983 0.9867-58.127 1.0679-87.01 4.0332 28.976-1.8495 57.99-0.80332 87.06-0.67466h0.00001c29.167-0.0827 58.81-1.2144 88.231-7.3397v-0.00001c3.6502-15.607 3.2996-31.915 0.93666-47.612-2.58-13.555-6.7822-26.683-11.615-39.42z" fill-rule="evenodd"/>
    <path id="path3402" d="m496.57 564.39 0.84946-9.9639c-95.908-7.34-192.06-8.4077-288.06-7.5894-96.761 0.82343-193.44 3.6535-290.17 4.4901 96.726 0.83662 193.48-0.32046 290.17 0.52962 95.934 0.84474 191.88 3.5694 287.21 12.534z" fill-rule="evenodd"/>
    <path id="path3404" d="m-234.94 540.13 1.1616-9.9323c-83.681-8.089-167.5-4.7817-251.1-3.1151 83.601 1.6667 167.55 1.715 249.94 13.047z" fill-rule="evenodd"/>
    <path id="path3406" d="m694.63 620.96 0.70448-9.9752c-195.48-12.96-391.38-17.15-587.18-17.93-196.35-0.77827-392.66 1.8842-588.98 2.7187 196.32 0.8345 392.66-0.15884 588.94 2.2882 195.73 2.4407 391.45 8.2899 586.53 22.902z" fill-rule="evenodd"/>
    <path id="path3408" d="m-227.2 556.24 1.8442-9.8285c-27.114-4.2031-53.149-16.025-75.597-32.756-22.204-16.544-41.206-37.406-58.665-59.305 16.134 22.893 33.922 44.938 55.576 63.197 21.959 18.507 48.238 32.44 76.842 38.692z" fill-rule="evenodd"/>
    <path id="path3410" d="m-43.8 388.78-1.2942 9.9159c8.9446 0.75224 17.828 3.3059 25.558 7.9549 7.194 4.2823 13.458 10.366 18.733 17.275 5.5238 7.2434 10.001 15.395 13.958 23.815h0.000002c4.0959 8.7218 7.6201 17.759 11.089 26.809-2.6552-9.3222-5.3671-18.64-8.713-27.799-0.000001 0-0.000001-0.00001-0.000002-0.00001-3.2277-8.8421-7.0602-17.57-12.174-25.704-4.8937-7.7911-11.087-14.973-18.777-20.587-8.3454-6.04-18.182-9.9338-28.38-11.68z" fill-rule="evenodd"/>
    <path id="path3412" d="m17.1 392.87-1.8759 9.8225c10.95 1.6153 21.708 5.574 31.95 10.72h0.000003c10.428 5.2504 20.32 11.772 29.872 18.827h0.000006c9.0157 6.6616 17.713 13.843 26.402 21.053 7.116 5.9062 14.201 11.948 21.811 17.22-7.1914-5.8294-13.748-12.342-20.415-18.778-8.1238-7.8463-16.285-15.69-24.898-23.121-0.000002-0.00001-0.000004-0.00001-0.000005-0.00001-9.1141-7.8678-18.734-15.302-29.213-21.626h-0.000006c-10.295-6.2231-21.525-11.328-33.632-14.116z" fill-rule="evenodd"/>
    <path id="path3414" stroke-linejoin="round" d="m572.84 584.37c52.197 13.986 105.17-14.46 118.32-63.534 5.2522-19.601 3.3475-39.518-4.1504-57.275 1.6388 11.418 1.0734 23.254-2.0664 34.972-13.149 49.074-66.126 77.52-118.32 63.534-31.348-8.3997-55.28-30.208-66.553-56.908 5.2247 36.4 33.037 68.564 72.77 79.211z" stroke="#493939" stroke-linecap="round" stroke-width=".41976"/>
   </g>
   <g id="g4192" transform="matrix(.040537 0 0 .040537 26.298 17.736)" filter="url(#filter4188)">
    <path id="path4194" d="m-197.99 528.04v-10c-64.65 1.6667-129.3 3.3333-193.95 5 64.65 1.6667 129.3 3.3333 193.95 5z" fill-rule="evenodd"/>
    <path id="path4196" d="m-222.57 503.79 0.66672-9.9778c-87.783-4.1873-175.4-0.7184-262.97 0.94827 87.576 1.6667 175.33 1.5393 262.31 9.0295z" fill-rule="evenodd"/>
    <path id="path4198" d="m-242.44 471.47v-10c-96.975 1.6667-193.95 3.3333-290.92 5 96.975 1.6667 193.95 3.3333 290.92 5z" fill-rule="evenodd"/>
    <path id="path4200" d="m-60.112 410.84-0.99504-9.9504c-44.162 4.9816-88.627 7.5724-133.13 7.8563h-0.00001c-45.714 1.3698-91.526-0.14406-136.78-6.932h0.00002c21.356-4.4546 41.275-13.412 60.484-23.429 17.633-9.4211 34.61-19.938 52.349-29.089-17.963 8.7004-35.236 18.804-53.043 27.748-19.407 9.9942-39.385 19.42-60.398 24.79 45.286 7.8572 91.346 11.591 137.35 13.536 0 0 0.00001 0 0.00002 0.00001 44.729 0.8432 89.538-0.63237 134.17-4.5302z" fill-rule="evenodd"/>
    <path id="path4202" d="m-262.52 360.46-0.23902 9.9971c112.35 1.8489 224.61-0.055 336.84 0.43715 111.49 0.49 223.09 3.27 334.02 14.76-110.75-13.14-222.42-17.6-333.96-19.75-112.28-2.16-224.57-1.93-336.66-5.45z" fill-rule="evenodd"/>
    <path id="path4204" d="m-265.27 357.17 5.2589 8.5055c66.648-41.864 140.95-71.657 218.23-87.587 0.000012 0 0.000024-0.00001 0.000035-0.00001 71.912-14.827 145.96-18.127 219.57-15.9 21.378-1.0901 43.013 2.6558 62.853 10.846 0.00001 0.00001 0.00003 0.00001 0.00004 0.00002 19.16 7.9093 36.631 19.692 52.419 33.291 16.157 13.919 30.646 29.731 44.299 46.185 13.3 16.03 25.79 32.731 38.413 49.318-12.389-16.762-24.642-33.635-37.734-49.873-13.438-16.667-27.747-32.728-43.809-46.968-15.697-13.918-33.185-26.07-52.557-34.401h-0.00001c-20.051-8.6221-42.027-12.768-63.896-11.962-73.748-3.2777-148.14-1.0028-220.86 12.924-0.000012 0.00001-0.000023 0.00001-0.000035 0.00001-78.286 14.998-153.93 44.069-222.19 85.619z" fill-rule="evenodd"/>
    <path id="path4206" d="m437.54 361.9 5.3945-8.4202c-63.8-38.95-131.82-72.92-204.53-89.04 71.916 19.357 137.57 56.069 199.15 97.454z" fill-rule="evenodd"/>
    <path id="path4208" d="m441.77 381.79 5.3946-8.4201c-2.0938-0.87143-3.1523-1.1254-3.1462-0.82554-0.61869 0.0384-1.0489 0.0986-1.2919 0.16063-0.90712 0.1886-1.6593 0.40764-2.2688 0.60553-2.2291 0.69949-4.3348 1.4888-6.3546 2.2612h-0.00001c-6.7779 2.5832-13.428 5.36-20.027 8.149 0 0-0.00001 0-0.00001 0.00001-16.405 7.8168-32.899 15.838-49.466 24.068h-0.00001c-4.5626-16.215-11.767-31.568-20.798-45.821-9.4927-14.329-20.502-27.526-32.287-39.879-22.709-23.801-48.279-44.399-73.129-65.727 24.095 22.178 48.958 43.677 70.62 68.038 11.245 12.645 21.643 26.026 30.427 40.354v0.00001c9.482 14.775 17.496 30.637 23.256 47.267 0-0.00001 0.00001-0.00001 0.00001-0.00001 17.891-7.0846 36.134-13.752 54.712-20.008 0 0 0.00001 0 0.00001-0.00001 6.6694-2.5483 13.312-5.0561 19.984-7.3351l0.00001-0.00001c2.0241-0.68955 3.9708-1.3481 5.866-1.8654 0.56857-0.14966 0.99956-0.26946 1.2997-0.30682 0.11222-0.004 0.04-0.004-0.21752 0.0231 0.20158 0.29348-0.64425 0.0271-2.5734-0.73889z" fill-rule="evenodd"/>
    <path id="path4210" d="m492.95 544.2v-10l-521.24 5 521.24 5z" fill-rule="evenodd"/>
    <path id="path4212" d="m-341.54 408.06 9.657 2.5968c3.1353-13.065 4.0332-26.335 4.0151-39.379-0.31965-13.698-1.4021-27.072-1.8971-40.224-11.382-7.0238-21.717-15.653-30.891-25.232-7.3955-7.5054-14.268-15.881-22.194-23.418-0.24202-12.602-0.53391-25.324-0.87561-38.166-0.3417 12.843-0.63355 25.806-0.87561 38.89 7.4132 7.8551 13.857 16.752 21.157 25.254 8.5625 9.7399 18.295 18.351 29.189 25.169v0.00001c-0.49495 12.765-0.56418 25.311-1.5568 37.521-0.68608 12.671-2.1834 25.212-5.728 36.989z" fill-rule="evenodd"/>
    <path id="path4214" d="m-402.03 259.87-4.0614 9.1381c39.418 16.699 79.131 32.196 118.91 46.966 6.0079-1.0936 11.529-3.5539 16.371-6.7259 4.593-3.2001 8.6089-7.0045 12.28-10.983v-0.00001c3.4663-3.7489 6.6392-7.6586 9.8118-11.481 2.4418-3.7726 4.7326-7.4431 7.4407-10.409-25.792-10.412-53.305-13.64-80.324-14.213h-0.00002c-27.553-0.25123-54.979 1.8835-82.461 2.2778 27.483 0.39432 55.008-0.95214 82.406 0.0875h0.00002c26.758 0.68993 53.642 3.3231 78.058 12.221-3.4229 2.0501-6.23 4.5239-8.9357 6.7725-3.3087 3.7582-6.5328 7.5109-9.9432 10.986 0 0 0 0.00001-0.00001 0.00001-3.6311 3.6928-7.4441 7.1234-11.633 9.843-3.8848 2.7109-8.1265 4.7661-12.478 5.5297-39.029-15.85-77.598-32.369-115.44-50.009z" fill-rule="evenodd"/>
    <path id="path4216" d="m-299.1 384.44 8.2634-5.6316c-4.5273-5.902-8.4096-12.321-11.283-19.198-2.6305-6.2646-4.4325-12.97-5.6132-19.837-2.6341-15.291-2.5406-31.252-3.3975-47.043-0.85694 15.791-2.6787 31.544-1.7105 47.629v0.00001c0.44256 7.2712 1.5773 14.583 3.6891 21.736 2.3284 7.8413 5.7879 15.346 10.052 22.344z" fill-rule="evenodd"/>
    <path id="path4218" d="m-364.61 442.05 9.9936 0.35704c0.18691-5.7959 1.0304-11.515 2.8436-16.832 1.4656-4.3571 3.6193-8.5254 6.2667-12.387 0.00001 0 0.00001-0.00001 0.00001-0.00001 4.1529-6.7132 10.361-12.574 16.01-19.634 88.881-2.7024 178.12-4.7806 267.73-5.1675h0.000047c24.803 25.556 51.08 49.746 78.655 72.446 26.604 21.693 54.288 42.097 83.47 60.09 0.00002 0.00001 0.00003 0.00002 0.00004 0.00003 64.643 5.9808 129.48 7.6831 194.17 7.8255 64.81 0.11763 129.59-1.3187 194.38-1.667-64.793-0.34821-129.6 0.39174-194.37-0.42228-64.498-0.78637-128.94-3.0782-192.88-9.5816-28.57-18.102-55.558-38.573-81.416-60.304-27.812-23.144-54.439-47.8-79.708-73.84h-0.000046c-90.897-0.38697-182.14 0.93975-273.71 2.9137-6.3123 6.8951-13.913 13.463-20.255 21.839-0.00001 0.00001-0.00002 0.00003-0.00003 0.00004-3.1643 4.4944-5.7708 9.4302-7.6213 14.696-2.2263 6.4052-3.3161 13.073-3.5719 19.668z" fill-rule="evenodd"/>
    <path id="path4220" d="m403.11 526.89 9.9923 0.39302c0.18736-28.057-8.1922-55.191-20.882-79.387-11.958-22.827-27.521-43.405-44.723-62.231 15.973 19.879 30.099 41.29 40.353 64.347 10.842 24.416 17.195 50.969 15.26 76.878z" fill-rule="evenodd"/>
    <path id="path4222" d="m812.85 474.22 6.7041-7.4199c-26.036-22.964-55.754-41.421-87.266-55.468-31.768-14.159-65.236-23.981-99.148-30.801-34.902-7.0205-70.308-10.926-105.74-13.047h-0.00002c-35.703-2.1383-71.459-2.4561-107.18-2.0301 35.721 0.42597 71.441 1.5966 107 4.5794h0.00001c35.284 2.9607 70.428 7.6888 104.86 15.478 0 0 0.00001 0.00001 0.00002 0.00001 33.448 7.5688 66.249 18.05 97.052 32.685 30.539 14.507 59.075 33.194 83.721 56.023z" fill-rule="evenodd"/>
    <path id="path4224" stroke-linejoin="round" d="m-135.01 575.65c-54.038 0-97.847-41.188-97.847-91.993 0-20.293 6.9946-39.038 18.833-54.25-4.538 10.604-7.0555 22.184-7.0555 34.315 0 50.805 43.809 91.993 97.847 91.993 32.454 0 61.214-14.871 79.015-37.743-14.468 33.807-49.657 57.678-90.792 57.678z" stroke="#493939" stroke-linecap="round" stroke-width=".41976"/>
    <path id="path4226" stroke-linejoin="round" d="m572.84 584.37c52.197 13.986 105.17-14.46 118.32-63.534 5.2522-19.601 3.3475-39.518-4.1504-57.275 1.6388 11.418 1.0734 23.254-2.0664 34.972-13.149 49.074-66.126 77.52-118.32 63.534-31.348-8.3997-55.28-30.208-66.553-56.908 5.2247 36.4 33.037 68.564 72.77 79.211z" stroke="#493939" stroke-linecap="round" stroke-width=".41976"/>
    <path id="path4228" d="m170.57 361.6 6.3502 7.725c4.3338-3.7726 8.472-8.3724 11.215-14.034 2.0321-4.2372 2.8577-9.0832 2.1002-13.845-0.84635-4.6682-2.9615-8.7283-5.5538-12.123-3.0373-4.0264-6.6169-7.4035-10.299-10.441-8.7233-7.2142-18.228-13.028-27.483-19.036-9.0077-5.8631-18.057-11.667-25.682-19.237 6.9631 8.1825 15.626 14.862 24.114 21.442 8.7536 6.7992 17.678 13.34 25.377 20.911h0.00001c3.2377 3.1932 6.2352 6.5121 8.4896 10.148l0.00001 0.00001c1.86 3.0516 3.2619 6.2519 3.4531 9.3493 0.2794 2.9993-0.62993 6.1477-2.191 8.8672-2.2142 3.9364-5.8788 7.186-9.8902 10.273z" fill-rule="evenodd"/>
    <path id="path4230" d="m3.9289 283.69 0.22347 9.9975c71.614-3.2691 142.6-11.413 214.04-13.08-71.441-1.6667-143.03 3.1586-214.26 3.0825z" fill-rule="evenodd"/>
    <path id="path4232" d="m51.617 364.77 9.904 1.3821c0.78457-8.1068 0.86302-16.469-0.55292-24.703-1.3633-7.829-4.224-15.325-8.4017-21.952h-0.000001c-4.9244-7.7649-11.363-14.23-18.307-19.789h-0.000004c-9.387-7.5238-19.695-13.602-30.218-19.1 9.9692 6.4483 19.62 13.428 28.037 21.578h0.000002c6.2097 6.0204 11.737 12.705 15.504 20.158 3.2006 6.2927 5.0897 13.184 5.6402 20.109 0.60672 7.3596-0.21587 14.85-1.6046 22.316z" fill-rule="evenodd"/>
    <path id="path4234" d="m819.19 468.4-9.283 3.7183c5.1684 12.231 9.7063 24.658 12.633 37.43 3.7926 13.733 5.6184 28.072 3.3512 41.944v0.00001c-27.166 5.7882-55.65 7.1493-84.304 7.9212h-0.00001c-28.983 0.9867-58.127 1.0679-87.01 4.0332 28.976-1.8495 57.99-0.80332 87.06-0.67466h0.00001c29.167-0.0827 58.81-1.2144 88.231-7.3397v-0.00001c3.6502-15.607 3.2996-31.915 0.93666-47.612-2.58-13.555-6.7822-26.683-11.615-39.42z" fill-rule="evenodd"/>
    <path id="path4236" d="m496.57 564.39 0.84946-9.9639c-95.908-7.34-192.06-8.4077-288.06-7.5894-96.761 0.82343-193.44 3.6535-290.17 4.4901 96.726 0.83662 193.48-0.32046 290.17 0.52962 95.934 0.84474 191.88 3.5694 287.21 12.534z" fill-rule="evenodd"/>
    <path id="path4238" d="m-234.94 540.13 1.1616-9.9323c-83.681-8.089-167.5-4.7817-251.1-3.1151 83.601 1.6667 167.55 1.715 249.94 13.047z" fill-rule="evenodd"/>
    <path id="path4240" d="m694.63 620.96 0.70448-9.9752c-195.48-12.96-391.38-17.15-587.18-17.93-196.35-0.77827-392.66 1.8842-588.98 2.7187 196.32 0.8345 392.66-0.15884 588.94 2.2882 195.73 2.4407 391.45 8.2899 586.53 22.902z" fill-rule="evenodd"/>
    <path id="path4242" d="m-227.2 556.24 1.8442-9.8285c-27.114-4.2031-53.149-16.025-75.597-32.756-22.204-16.544-41.206-37.406-58.665-59.305 16.134 22.893 33.922 44.938 55.576 63.197 21.959 18.507 48.238 32.44 76.842 38.692z" fill-rule="evenodd"/>
    <path id="path4244" d="m-43.8 388.78-1.2942 9.9159c8.9446 0.75224 17.828 3.3059 25.558 7.9549 7.194 4.2823 13.458 10.366 18.733 17.275 5.5238 7.2434 10.001 15.395 13.958 23.815h0.000002c4.0959 8.7218 7.6201 17.759 11.089 26.809-2.6552-9.3222-5.3671-18.64-8.713-27.799-0.000001 0-0.000001-0.00001-0.000002-0.00001-3.2277-8.8421-7.0602-17.57-12.174-25.704-4.8937-7.7911-11.087-14.973-18.777-20.587-8.3454-6.04-18.182-9.9338-28.38-11.68z" fill-rule="evenodd"/>
    <path id="path4246" d="m17.1 392.87-1.8759 9.8225c10.95 1.6153 21.708 5.574 31.95 10.72h0.000003c10.428 5.2504 20.32 11.772 29.872 18.827h0.000006c9.0157 6.6616 17.713 13.843 26.402 21.053 7.116 5.9062 14.201 11.948 21.811 17.22-7.1914-5.8294-13.748-12.342-20.415-18.778-8.1238-7.8463-16.285-15.69-24.898-23.121-0.000002-0.00001-0.000004-0.00001-0.000005-0.00001-9.1141-7.8678-18.734-15.302-29.213-21.626h-0.000006c-10.295-6.2231-21.525-11.328-33.632-14.116z" fill-rule="evenodd"/>
    <path id="path4248" stroke-linejoin="round" d="m572.84 584.37c52.197 13.986 105.17-14.46 118.32-63.534 5.2522-19.601 3.3475-39.518-4.1504-57.275 1.6388 11.418 1.0734 23.254-2.0664 34.972-13.149 49.074-66.126 77.52-118.32 63.534-31.348-8.3997-55.28-30.208-66.553-56.908 5.2247 36.4 33.037 68.564 72.77 79.211z" stroke="#493939" stroke-linecap="round" stroke-width=".41976"/>
   </g>
  </g>
 </g>
 <metadata>
  <rdf:RDF>
   <cc:Work>
    <dc:format>image/svg+xml</dc:format>
    <dc:type rdf:resource="http://purl.org/dc/dcmitype/StillImage"/>
    <cc:license rdf:resource="http://creativecommons.org/licenses/publicdomain/"/>
    <dc:publisher>
     <cc:Agent rdf:about="http://openclipart.org/">
      <dc:title>Openclipart</dc:title>
     </cc:Agent>
    </dc:publisher>
   </cc:Work>
   <cc:License rdf:about="http://creativecommons.org/licenses/publicdomain/">
    <cc:permits rdf:resource="http://creativecommons.org/ns#Reproduction"/>
    <cc:permits rdf:resource="http://creativecommons.org/ns#Distribution"/>
    <cc:permits rdf:resource="http://creativecommons.org/ns#DerivativeWorks"/>
   </cc:License>
  </rdf:RDF>
 </metadata>
</svg>
